<svg width="20" height="20" viewBox="0 0 20 20" fill="none" xmlns="http://www.w3.org/2000/svg">
<g clip-path="url(#clip0_16111_15595)">
<path d="M16.5621 7.45739C16.4857 7.50195 14.6671 8.44248 14.6671 10.5279C14.7528 12.9061 16.9621 13.7401 17 13.7401C16.9621 13.7847 16.6665 14.8763 15.7907 16.0205C15.0956 17.0062 14.3242 18 13.1528 18C12.0385 18 11.6385 17.3431 10.3528 17.3431C8.97203 17.3431 8.58135 18 7.5242 18C6.35277 18 5.52419 16.953 4.79127 15.9766C3.8391 14.6986 3.02978 12.6931 3.00121 10.7675C2.98195 9.74707 3.19189 8.74403 3.72481 7.89206C4.47699 6.70265 5.81985 5.89524 7.28631 5.86862C8.40992 5.83331 9.40992 6.58747 10.0956 6.58747C10.7528 6.58747 11.9814 5.86862 13.3714 5.86862C13.9714 5.86919 15.5714 6.03762 16.5621 7.45739ZM10.0006 5.66488C9.8006 4.73303 10.3528 3.80119 10.8671 3.20677C11.5242 2.48792 12.5621 2 13.4571 2C13.5143 2.93185 13.1522 3.84575 12.505 4.51136C11.9242 5.23021 10.9242 5.77138 10.0006 5.66488Z" fill="white"/>
</g>
<defs>
<clipPath id="clip0_16111_15595">
<rect width="20" height="20" fill="white"/>
</clipPath>
</defs>
</svg>
