<svg width="129" height="25" viewBox="0 0 129 25" fill="none" xmlns="http://www.w3.org/2000/svg">
<path fill-rule="evenodd" clip-rule="evenodd" d="M5.13164 2.53372C4.27324 3.13394 3.49702 3.84359 2.82319 4.64244C5.57678 4.3868 9.0751 4.80423 13.1366 6.83501C17.4738 9.00353 20.9663 9.07685 23.3969 8.60801C23.1763 7.94027 22.8986 7.29851 22.5698 6.68843C19.7874 6.98189 16.2204 6.59345 12.0633 4.51499C9.42358 3.19511 7.09666 2.6514 5.13164 2.53372ZM20.9444 4.37499C18.7472 1.92 15.554 0.375 12 0.375C10.9563 0.375 9.9436 0.508264 8.9782 0.758688C10.2857 1.11545 11.6747 1.63739 13.1366 2.36836C16.1802 3.89012 18.8078 4.3801 20.9444 4.37499ZM23.9165 10.9519C20.9801 11.5317 16.9253 11.4126 12.0633 8.98163C7.51798 6.70895 3.90026 6.73757 1.46034 7.27979C1.3344 7.30775 1.21142 7.33715 1.09142 7.36775C0.771973 8.06249 0.516981 8.79305 0.334021 9.55169C0.529432 9.49949 0.731359 9.44987 0.939697 9.40355C3.89974 8.74577 8.08204 8.77433 13.1366 11.3017C17.682 13.5743 21.2998 13.5457 23.7397 13.0035C23.8233 12.985 23.9057 12.9658 23.9867 12.946C23.9956 12.7568 24 12.5664 24 12.375C24 11.8935 23.9717 11.4186 23.9165 10.9519ZM23.5949 15.4784C20.687 15.9868 16.7502 15.7916 12.0633 13.4483C7.51798 11.1756 3.90026 11.2042 1.46034 11.7464C0.918751 11.8667 0.431544 12.0133 0.001758 12.1681C0.000586201 12.2369 0 12.3059 0 12.375C0 19.0024 5.37258 24.375 12 24.375C17.5542 24.375 22.2272 20.6015 23.5949 15.4784Z" fill="#6DAD04"/>
<path d="M36.896 21.935H33.704V5.567H36.8V7.007C37.328 6.095 38.648 5.303 40.424 5.303C43.88 5.303 45.872 7.943 45.872 11.447C45.872 15.023 43.64 17.663 40.304 17.663C38.672 17.663 37.472 17.015 36.896 16.223V21.935ZM42.728 11.471C42.728 9.383 41.432 8.159 39.8 8.159C38.168 8.159 36.848 9.383 36.848 11.471C36.848 13.559 38.168 14.807 39.8 14.807C41.432 14.807 42.728 13.583 42.728 11.471ZM47.6793 14.159C47.6793 12.047 49.2393 10.871 51.2073 10.583L54.1113 10.151C54.7833 10.055 54.9993 9.719 54.9993 9.311C54.9993 8.471 54.3513 7.775 53.0073 7.775C51.6153 7.775 50.8473 8.663 50.7513 9.695L47.9193 9.095C48.1113 7.247 49.8153 5.207 52.9833 5.207C56.7273 5.207 58.1193 7.319 58.1193 9.695V15.503C58.1193 16.127 58.1913 16.967 58.2633 17.375H55.3353C55.2633 17.063 55.2153 16.415 55.2153 15.959C54.6153 16.895 53.4873 17.711 51.7353 17.711C49.2153 17.711 47.6793 16.007 47.6793 14.159ZM52.4073 15.335C53.7513 15.335 54.9993 14.687 54.9993 12.599V12.071L52.3353 12.479C51.5193 12.599 50.8713 13.055 50.8713 13.967C50.8713 14.663 51.3753 15.335 52.4073 15.335ZM66.5939 8.159C64.9619 8.159 63.5939 9.335 63.5939 11.471C63.5939 13.607 64.9859 14.807 66.6179 14.807C68.2499 14.807 69.0659 13.727 69.3299 12.815L72.1379 13.751C71.6099 15.719 69.7619 17.735 66.6179 17.735C63.1379 17.735 60.4019 15.095 60.4019 11.471C60.4019 7.823 63.0899 5.207 66.5219 5.207C69.7379 5.207 71.5619 7.199 72.0659 9.191L69.2099 10.151C68.9219 9.167 68.1779 8.159 66.5939 8.159ZM85.9333 5.567L81.2053 10.535L86.0293 17.375H82.1173L78.9973 12.863L77.6773 14.255V17.375H74.4853V-0.00100088H77.6773V9.959L81.7573 5.567H85.9333ZM91.0835 10.583V17.375H87.8915V5.567H90.9875V7.031C91.7075 5.807 93.1235 5.255 94.3955 5.255C97.3235 5.255 98.6675 7.343 98.6675 9.935V17.375H95.4755V10.487C95.4755 9.167 94.8275 8.135 93.2915 8.135C91.8995 8.135 91.0835 9.215 91.0835 10.583ZM101.067 18.023L103.947 17.255C104.163 18.551 105.195 19.487 106.707 19.487C108.723 19.487 109.851 18.479 109.851 16.199V15.335C109.371 16.103 108.267 16.847 106.563 16.847C103.419 16.847 101.067 14.423 101.067 11.111C101.067 7.991 103.323 5.351 106.563 5.351C108.435 5.351 109.515 6.167 109.923 6.959V5.567H112.995V16.103C112.995 19.343 111.243 22.295 106.803 22.295C103.563 22.295 101.403 20.279 101.067 18.023ZM107.115 14.111C108.747 14.111 109.899 12.935 109.899 11.111C109.899 9.287 108.651 8.135 107.115 8.135C105.531 8.135 104.283 9.287 104.283 11.111C104.283 12.959 105.459 14.111 107.115 14.111ZM121.531 14.831C123.091 14.831 124.531 13.703 124.531 11.471C124.531 9.239 123.091 8.111 121.531 8.111C119.971 8.111 118.531 9.239 118.531 11.471C118.531 13.679 119.971 14.831 121.531 14.831ZM121.531 5.207C125.059 5.207 127.723 7.823 127.723 11.471C127.723 15.095 125.059 17.735 121.531 17.735C118.003 17.735 115.339 15.095 115.339 11.471C115.339 7.823 118.003 5.207 121.531 5.207Z" fill="#6DAD04"/>
</svg>
