<svg width="16" height="16" viewBox="0 0 16 16" fill="none" xmlns="http://www.w3.org/2000/svg">
<path d="M1.33203 4.66797L6.77531 8.47826C7.21609 8.78681 7.43648 8.94108 7.67621 9.00084C7.88796 9.05362 8.10943 9.05362 8.32119 9.00084C8.56091 8.94108 8.7813 8.78681 9.22208 8.47827L14.6654 4.66797M4.53203 13.3346H11.4654C12.5855 13.3346 13.1455 13.3346 13.5733 13.1166C13.9497 12.9249 14.2556 12.6189 14.4474 12.2426C14.6654 11.8148 14.6654 11.2547 14.6654 10.1346V5.86797C14.6654 4.74786 14.6654 4.18781 14.4474 3.75999C14.2556 3.38366 13.9497 3.0777 13.5733 2.88596C13.1455 2.66797 12.5855 2.66797 11.4654 2.66797H4.53203C3.41193 2.66797 2.85187 2.66797 2.42405 2.88596C2.04773 3.0777 1.74176 3.38366 1.55002 3.75999C1.33203 4.18781 1.33203 4.74786 1.33203 5.86797V10.1346C1.33203 11.2547 1.33203 11.8148 1.55002 12.2426C1.74176 12.6189 2.04773 12.9249 2.42405 13.1166C2.85187 13.3346 3.41193 13.3346 4.53203 13.3346Z" stroke="#667085" stroke-width="1.33333" stroke-linecap="round" stroke-linejoin="round"/>
</svg>
