<svg width="16" height="16" viewBox="0 0 16 16" fill="none" xmlns="http://www.w3.org/2000/svg">
<path d="M11.4528 5.7763C12.4817 6.51441 13.7421 6.9487 15.1035 6.9487V4.31972C14.8458 4.31978 14.5889 4.29282 14.3368 4.23922V6.3086C12.9756 6.3086 11.7153 5.87431 10.6861 5.13625V10.5012C10.6861 13.1851 8.51815 15.3606 5.84401 15.3606C4.84623 15.3606 3.91883 15.0579 3.14844 14.5387C4.02771 15.4409 5.25393 16.0006 6.61052 16.0006C9.28482 16.0006 11.4529 13.8251 11.4529 11.1412V5.7763H11.4528V5.7763ZM12.3985 3.12398C11.8727 2.54747 11.5275 1.80243 11.4528 0.978768V0.640625H10.7262C10.9091 1.68751 11.5329 2.5819 12.3985 3.12398ZM4.83983 12.4792C4.54605 12.0926 4.38729 11.6197 4.388 11.1335C4.388 9.906 5.3796 8.91073 6.60297 8.91073C6.83097 8.91068 7.05759 8.94571 7.27487 9.0149V6.32716C7.02095 6.29224 6.76469 6.27742 6.50853 6.28285V8.37486C6.29109 8.30567 6.06435 8.27052 5.8363 8.27074C4.61293 8.27074 3.62138 9.2659 3.62138 10.4935C3.62138 11.3616 4.11702 12.1131 4.83983 12.4792Z" fill="#667085"/>
<path d="M10.6833 5.1362C11.7125 5.87426 12.9728 6.30855 14.334 6.30855V4.23917C13.5742 4.07674 12.9015 3.67825 12.3958 3.12398C11.5301 2.58184 10.9064 1.68745 10.7235 0.640625H8.81508V11.1411C8.81076 12.3652 7.82085 13.3564 6.6001 13.3564C5.88074 13.3564 5.24165 13.0123 4.83691 12.4792C4.11415 12.1131 3.61851 11.3615 3.61851 10.4936C3.61851 9.26606 4.61006 8.2708 5.83343 8.2708C6.06783 8.2708 6.29374 8.30742 6.50566 8.37491V6.28291C3.8785 6.33738 1.76562 8.49165 1.76562 11.1411C1.76562 12.4637 2.29178 13.6627 3.14573 14.5387C3.91612 15.0579 4.84352 15.3606 5.84131 15.3606C8.5155 15.3606 10.6834 13.185 10.6834 10.5012V5.1362H10.6833Z" fill="#667085"/>
<path d="M14.335 4.23853V3.67899C13.6498 3.68003 12.9781 3.48746 12.3968 3.12329C12.9114 3.68871 13.589 4.07858 14.335 4.23853ZM10.7245 0.639989C10.707 0.539941 10.6936 0.439234 10.6843 0.338143V0H8.04935V10.5005C8.04513 11.7245 7.05528 12.7157 5.83442 12.7157C5.476 12.7157 5.13759 12.6303 4.8379 12.4786C5.24264 13.0116 5.88173 13.3557 6.6011 13.3557C7.82173 13.3557 8.81181 12.3646 8.81607 11.1405V0.639989H10.7245ZM6.50676 6.28227V5.68659C6.28658 5.65639 6.06461 5.64124 5.84235 5.64135C3.16794 5.64129 1 7.81693 1 10.5005C1 12.183 1.85204 13.6658 3.14678 14.538C2.29283 13.662 1.76667 12.463 1.76667 11.1404C1.76667 8.49101 3.87949 6.33674 6.50676 6.28227Z" fill="#667085"/>
</svg>
